<svg xmlns="http://www.w3.org/2000/svg" viewBox="0 0 1200 630">
  <defs>
    <linearGradient id="bgGrad" x1="0%" y1="0%" x2="100%" y2="100%">
      <stop offset="0%" style="stop-color:#0f172a"/>
      <stop offset="50%" style="stop-color:#1e293b"/>
      <stop offset="100%" style="stop-color:#0f172a"/>
    </linearGradient>
    <linearGradient id="blueGrad" x1="0%" y1="0%" x2="100%" y2="100%">
      <stop offset="0%" style="stop-color:#1e3a8a"/>
      <stop offset="100%" style="stop-color:#3b82f6"/>
    </linearGradient>
  </defs>

  <!-- Background -->
  <rect width="1200" height="630" fill="url(#bgGrad)"/>

  <!-- Decorative circles -->
  <circle cx="100" cy="530" r="200" fill="#3b82f6" opacity="0.1"/>
  <circle cx="1100" cy="100" r="250" fill="#3b82f6" opacity="0.08"/>

  <!-- Icon -->
  <g transform="translate(80, 180)">
    <rect width="180" height="180" rx="36" fill="url(#blueGrad)"/>
    <g fill="white" transform="translate(40, 30)">
      <rect x="25" y="15" width="50" height="90" rx="25"/>
      <path d="M10 75 Q10 125 50 125 Q90 125 90 75" fill="none" stroke="white" stroke-width="12" stroke-linecap="round"/>
      <rect x="44" y="125" width="12" height="30"/>
      <rect x="25" y="150" width="50" height="10" rx="5"/>
    </g>
    <circle cx="145" cy="35" r="28" fill="#0f172a"/>
    <text x="145" y="45" font-family="Arial, sans-serif" font-size="24" font-weight="bold" fill="white" text-anchor="middle">AI</text>
  </g>

  <!-- Main Text -->
  <text x="300" y="260" font-family="Arial, sans-serif" font-size="72" font-weight="bold" fill="white">AI Mock Interview</text>
  <text x="300" y="330" font-family="Arial, sans-serif" font-size="32" fill="#94a3b8">Practice Tech Interviews with AI That Speaks &amp; Listens</text>

  <!-- Features -->
  <g font-family="Arial, sans-serif" font-size="24" fill="#64748b">
    <text x="300" y="420">✓ Voice-Powered Conversations</text>
    <text x="650" y="420">✓ Instant Feedback</text>
    <text x="300" y="460">✓ Multiple Tech Stacks</text>
    <text x="650" y="460">✓ 100% Free</text>
  </g>

  <!-- Brand -->
  <text x="300" y="560" font-family="Arial, sans-serif" font-size="28" font-weight="bold" fill="#3b82f6">FresherReady</text>
  <text x="520" y="560" font-family="Arial, sans-serif" font-size="24" fill="#64748b">by Sunadh EduTech</text>

  <!-- URL -->
  <text x="1000" y="560" font-family="Arial, sans-serif" font-size="20" fill="#475569" text-anchor="end">sunadhedutech.com</text>
</svg>
